<?xml version="1.0" standalone="no"?>
<!DOCTYPE svg PUBLIC "-//W3C//DTD SVG 20010904//EN"
 "http://www.w3.org/TR/2001/REC-SVG-20010904/DTD/svg10.dtd">
<svg version="1.0" xmlns="http://www.w3.org/2000/svg"
 width="512.000000pt" height="512.000000pt" viewBox="0 0 512.000000 512.000000"
 preserveAspectRatio="xMidYMid meet">
<metadata>
Created by potrace 1.14, written by Peter Selinger 2001-2017
</metadata>
<g transform="translate(0.000000,512.000000) scale(0.100000,-0.100000)"
fill="#000000" stroke="none">
<path d="M2345 4388 c-121 -104 -238 -204 -260 -223 -22 -18 -51 -43 -65 -55
-14 -12 -60 -52 -102 -88 -43 -36 -78 -72 -79 -81 0 -10 -2 -11 -6 -4 -2 7
-36 -26 -76 -75 -39 -48 -98 -119 -132 -158 -74 -87 -63 -74 -275 -329 -96
-115 -177 -212 -181 -215 -9 -6 -43 -75 -114 -225 -71 -149 -125 -264 -200
-420 -66 -138 -67 -141 -66 -217 1 -43 4 -86 6 -96 2 -10 6 -44 9 -74 3 -31
13 -94 22 -140 9 -45 18 -94 21 -107 2 -14 20 -73 39 -132 37 -115 108 -261
222 -457 39 -68 97 -176 128 -240 30 -64 60 -127 66 -139 11 -23 53 -38 363
-136 203 -64 529 -168 625 -199 52 -17 105 -32 117 -33 12 -2 26 -5 30 -8 5
-3 51 3 103 14 52 11 163 33 245 50 83 17 157 32 165 34 8 2 85 17 170 35 85
17 193 40 240 50 47 10 99 21 115 23 72 13 265 56 275 62 12 7 324 476 492
739 79 123 88 142 84 175 -3 20 -8 79 -12 131 -3 52 -7 115 -9 140 -5 71 -16
182 -21 214 -3 15 -7 50 -9 78 -2 27 -7 53 -10 58 -4 6 -2 10 3 10 6 0 1 28
-9 63 -11 34 -28 94 -38 132 -69 252 -174 599 -184 610 -19 19 -200 216 -218
236 -41 47 -338 357 -446 466 -68 68 -123 127 -123 132 0 12 -72 80 -135 127
-27 21 -102 88 -165 150 -177 172 -219 210 -297 265 -59 41 -73 47 -74 32 0
-15 -1 -16 -7 -2 -6 13 -55 -25 -227 -173z m975 -1088 c6 -11 8 -20 6 -20 -3
0 -10 9 -16 20 -6 11 -8 20 -6 20 3 0 10 -9 16 -20z m-925 -1079 c16 -21 12
-20 -23 9 -23 18 -42 34 -42 36 0 10 50 -25 65 -45z m1125 -955 c0 -2 -8 -10
-17 -17 -16 -13 -17 -12 -4 4 13 16 21 21 21 13z"/>
</g>
</svg>
