<?xml version="1.0" standalone="no"?>
<!DOCTYPE svg PUBLIC "-//W3C//DTD SVG 20010904//EN"
 "http://www.w3.org/TR/2001/REC-SVG-20010904/DTD/svg10.dtd">
<svg version="1.0" xmlns="http://www.w3.org/2000/svg"
 width="936.000000pt" height="936.000000pt" viewBox="0 0 936.000000 936.000000"
 preserveAspectRatio="xMidYMid meet">
<metadata>
Created by potrace 1.14, written by Peter Selinger 2001-2017
</metadata>
<g transform="translate(0.000000,936.000000) scale(0.100000,-0.100000)"
fill="#000000" stroke="none">
<path d="M4523 8808 c-21 -18 -40 -35 -43 -38 -3 -3 -25 -21 -50 -41 -25 -21
-60 -50 -78 -67 -18 -16 -52 -46 -75 -65 -115 -96 -176 -148 -203 -172 -43
-37 -119 -103 -165 -141 -70 -59 -148 -126 -178 -152 -35 -32 -55 -49 -130
-112 -36 -30 -72 -62 -82 -70 -9 -8 -38 -34 -65 -57 -27 -23 -59 -50 -70 -60
-12 -10 -41 -34 -64 -53 -24 -19 -59 -50 -78 -67 -36 -34 -78 -69 -98 -81 -6
-4 -23 -25 -38 -46 -17 -25 -26 -33 -26 -21 0 11 -18 -4 -47 -41 -48 -59 -79
-96 -98 -118 -6 -6 -44 -51 -85 -101 -40 -49 -80 -97 -87 -105 -13 -15 -21
-24 -83 -100 -18 -22 -42 -50 -53 -63 -12 -14 -38 -44 -57 -67 -19 -24 -42
-50 -50 -60 -23 -26 -83 -99 -124 -150 -20 -25 -49 -59 -64 -75 -15 -17 -45
-53 -67 -80 -22 -28 -44 -55 -50 -61 -5 -6 -28 -33 -50 -59 -22 -27 -44 -53
-50 -59 -5 -6 -27 -32 -48 -58 -21 -26 -43 -53 -50 -60 -7 -8 -32 -38 -56 -68
-25 -30 -51 -62 -58 -70 -14 -16 -32 -37 -91 -110 -21 -24 -47 -54 -59 -67
-16 -17 -81 -137 -88 -163 -4 -16 -31 -66 -38 -71 -5 -3 -7 -8 -6 -10 2 -2
-11 -33 -28 -69 -16 -36 -36 -80 -44 -97 -8 -18 -17 -33 -21 -33 -5 0 -8 -6
-8 -13 0 -8 -18 -50 -39 -94 -57 -115 -105 -217 -106 -223 0 -3 -27 -57 -58
-121 -31 -64 -57 -122 -57 -128 0 -6 -4 -11 -10 -11 -5 0 -10 -5 -10 -11 0 -6
-27 -68 -61 -137 -34 -69 -90 -187 -126 -261 -36 -75 -68 -140 -71 -146 -3 -5
1 -4 9 2 21 21 31 15 15 -9 -11 -15 -12 -26 -5 -40 6 -12 6 -24 0 -37 -6 -10
-8 -21 -5 -24 3 -2 7 -49 9 -103 2 -55 6 -117 9 -139 3 -22 8 -67 12 -100 3
-33 8 -69 10 -80 3 -11 7 -40 10 -65 3 -25 7 -55 10 -67 10 -54 13 -70 19
-108 3 -22 12 -67 20 -101 19 -83 26 -116 29 -134 1 -9 5 -20 8 -25 3 -6 9
-28 13 -50 9 -44 9 -43 18 -65 3 -8 11 -33 17 -55 19 -66 92 -259 106 -280 7
-11 13 -24 13 -28 0 -14 124 -262 135 -269 6 -4 7 -8 3 -8 -5 0 1 -13 12 -29
12 -16 21 -31 21 -34 0 -2 29 -55 64 -116 36 -61 61 -111 58 -111 -4 0 0 -5 8
-10 8 -5 15 -13 15 -17 0 -4 17 -36 38 -69 20 -34 37 -67 37 -73 0 -6 4 -11 9
-11 5 0 11 -8 14 -17 4 -10 27 -54 52 -98 69 -121 177 -340 214 -435 19 -47
40 -90 47 -96 8 -6 14 -18 14 -27 0 -18 11 -26 39 -32 11 -2 73 -21 138 -41
65 -21 120 -39 123 -39 3 -1 12 -4 20 -7 8 -3 76 -25 150 -48 74 -23 142 -44
150 -47 8 -3 24 -8 35 -10 11 -1 29 -7 40 -12 11 -5 94 -32 185 -61 91 -28
175 -55 188 -60 13 -6 32 -10 42 -10 11 0 20 -5 20 -12 0 -6 3 -9 6 -5 3 3 18
1 33 -5 14 -5 33 -11 41 -13 21 -4 264 -83 330 -106 30 -11 64 -22 75 -23 11
-2 53 -15 93 -29 39 -14 72 -24 72 -21 0 2 13 -2 30 -11 16 -8 31 -15 32 -14
6 3 94 -24 103 -31 6 -5 15 -9 20 -9 6 -1 28 -7 50 -13 22 -6 42 -12 45 -13 3
-1 32 -10 65 -20 33 -10 67 -18 75 -18 8 0 21 -4 28 -10 8 -6 17 -5 27 3 13
11 14 10 9 -4 -7 -19 -1 -20 46 -6 19 6 49 12 65 15 17 2 39 6 50 9 21 4 152
31 195 40 14 3 36 7 50 10 14 3 36 8 50 11 35 7 70 14 105 21 17 2 46 9 65 14
19 5 51 12 70 15 34 5 55 9 110 20 79 17 117 25 135 29 11 3 67 15 125 26 58
12 113 23 122 25 10 2 91 19 180 37 90 18 165 36 166 40 2 5 8 6 12 3 5 -3 40
2 77 10 37 9 84 18 103 21 19 2 50 9 70 14 19 5 49 12 65 14 51 10 103 20 155
32 14 3 45 10 70 15 25 4 59 11 75 15 17 4 39 8 50 9 11 2 20 4 20 5 0 1 9 3
20 5 11 2 36 7 55 11 19 4 42 8 50 10 8 1 24 4 35 7 73 19 118 27 123 22 3 -2
11 0 18 5 6 6 16 10 20 9 18 -4 64 13 58 22 -3 5 2 9 10 9 14 0 126 152 126
171 0 5 5 9 10 9 6 0 10 5 10 10 0 12 81 134 92 138 5 2 8 8 8 13 0 4 53 88
118 184 64 97 122 183 127 192 36 56 196 300 203 308 9 11 117 176 184 280 25
39 51 81 58 95 7 14 16 27 19 30 8 6 106 161 133 210 11 19 30 49 42 65 15 20
21 42 20 65 -2 19 -4 58 -5 85 -1 28 -6 60 -10 72 -5 13 -4 25 2 28 5 4 7 10
4 15 -6 10 -13 67 -21 185 -3 50 -7 108 -9 130 -2 22 -6 76 -9 120 -4 44 -9
98 -12 120 -2 22 -7 65 -10 95 -8 94 -18 188 -30 285 -4 33 -7 79 -8 102 -1
26 -9 51 -22 65 -32 37 -37 49 -20 42 9 -3 16 -10 16 -15 0 -4 9 -13 20 -19
21 -11 21 -9 4 35 -4 11 -9 28 -11 39 -2 10 -12 46 -24 80 -11 33 -22 73 -24
88 -2 15 -9 37 -15 48 -6 11 -8 20 -4 20 3 0 1 7 -6 15 -7 8 -10 15 -7 15 4 0
0 18 -8 41 -8 23 -12 45 -9 50 3 5 0 9 -5 9 -6 0 -10 3 -10 8 1 4 0 9 -1 12
-1 3 -3 13 -6 23 -2 9 -6 23 -7 30 -2 6 -7 26 -11 42 -4 17 -11 39 -16 50 -6
16 -71 241 -85 295 -2 8 -13 47 -25 85 -11 39 -22 77 -24 85 -2 8 -10 35 -17
60 -7 25 -13 47 -14 50 -1 3 -7 23 -13 45 -22 74 -63 220 -67 237 -2 9 -9 27
-16 40 -7 13 -12 24 -11 26 14 20 -13 61 -108 162 -19 21 -73 79 -120 130 -47
52 -100 110 -118 129 -46 50 -227 243 -287 306 -47 49 -195 206 -415 438 -52
55 -199 205 -327 333 -127 128 -234 243 -238 255 -4 13 -13 28 -19 35 -6 6
-27 29 -47 50 -20 21 -47 48 -60 59 -82 68 -118 95 -126 95 -5 0 -15 9 -23 20
-8 11 -18 20 -23 20 -5 0 -19 9 -31 19 -91 83 -175 162 -276 261 -234 228
-316 306 -380 360 -36 30 -67 58 -70 61 -35 39 -258 192 -273 186 -7 -3 -14
-18 -15 -35 -1 -17 -6 -41 -11 -54 -7 -17 -8 -11 -7 28 2 28 6 56 10 62 12 20
-2 13 -41 -20z m-100 -933 c4 -8 2 -17 -3 -20 -6 -4 -10 3 -10 14 0 25 6 27
13 6z m1527 -525 c0 -11 -4 -20 -9 -20 -5 0 -7 9 -4 20 3 11 7 20 9 20 2 0 4
-9 4 -20z m5 -70 c3 -18 2 -30 -2 -27 -3 4 -7 21 -9 38 -2 18 -1 30 2 27 3 -3
7 -20 9 -38z m2 -72 c-3 -7 -5 -2 -5 12 0 14 2 19 5 13 2 -7 2 -19 0 -25z m93
-919 c0 -11 -4 -17 -10 -14 -5 3 -10 13 -10 21 0 8 5 14 10 14 6 0 10 -9 10
-21z m-3452 -89 c-7 -11 -18 -22 -25 -25 -9 -3 -8 4 3 20 19 29 40 34 22 5z
m3573 -37 c13 -16 12 -17 -3 -4 -10 7 -18 15 -18 17 0 8 8 3 21 -13z m-2050
-1970 c9 -8 22 -13 28 -11 6 2 28 -19 48 -47 37 -50 34 -49 -36 13 -22 20 -34
25 -51 24 -3 0 -10 10 -17 24 -12 26 -4 25 28 -3z m2329 -1992 c0 -4 -22 -22
-50 -39 -63 -39 -65 -28 -2 14 56 38 52 36 52 25z m-4377 -16 c4 -8 3 -16 -1
-19 -4 -3 -9 4 -9 15 -2 23 3 25 10 4z m2 -45 c3 -5 -1 -10 -10 -10 -9 0 -13
5 -10 10 3 6 8 10 10 10 2 0 7 -4 10 -10z m4265 -14 c0 -2 -12 -11 -27 -20
l-28 -17 24 20 c23 21 31 25 31 17z m-4273 -43 c-3 -10 -5 -4 -5 12 0 17 2 24
5 18 2 -7 2 -21 0 -30z m4188 -22 c-9 -8 -36 -10 -30 -2 2 4 11 8 20 8 8 0 13
-3 10 -6z"/>
</g>
</svg>
