<?xml version="1.0" standalone="yes"?>
<svg xmlns="http://www.w3.org/2000/svg" width="468" height="454">
<path style="fill:#43cbdb; stroke:none;" d="M228 19L173 66L155.5 81L145.667 107L130 149L156 126L204 83L220.5 68L223.333 54L227.333 29L228 19z"/>
<path style="fill:#9dc9e1; stroke:none;" d="M229 19C226.981 29.962 225.791 41.0737 223.667 52C222.882 56.0355 220.331 62.9884 221.167 67C222.756 74.6274 237.411 83.9544 243 89C262.358 106.476 279.437 132.937 302 146C302 129.101 298.633 111.799 297 95C296.563 90.5052 297.855 81.1276 295.5 77.3333C291.533 70.9423 282.542 66.0031 277 61C262.109 47.5566 246.264 28.9947 229 19z"/>
<path style="fill:#df2b63; stroke:none;" d="M190 51L191 52L190 51z"/>
<path style="fill:#77b3f1; stroke:none;" d="M130 149L130 150C147.778 171.792 164.2 195.2 180.667 218C187.835 227.925 196.559 245.792 207 252C215.746 239.691 227.872 229.219 238 218C250.611 204.031 262.784 189.402 276 176C282.643 169.263 288.673 162.009 295 155C296.816 152.989 301.667 149.974 301.667 147C301.667 143.069 294.572 139.322 292 137C283.293 129.139 275.296 120.296 267 112C255.814 100.814 244.15 90.1498 233 79C230.469 76.4688 224.765 68.3333 221 68.3333C214.68 68.3333 202.629 83.8214 198 88C175.453 108.355 151.498 127.502 130 149z"/>
<path style="fill:#cdbbd3; stroke:none;" d="M296 79L300 122L302.5 147L330 175L376 221L399 243L376 163L354 139L317 100L296 79z"/>
<path style="fill:#01bdc5; stroke:none;" d="M154 82L86.3333 163L66.8333 204L49 241C61.6366 233.057 71.8882 215.201 82 204C97.5481 186.778 116.806 169.292 129.667 150C134.891 142.164 137.573 129.91 140.667 121C143.921 111.626 147.459 102.206 151.167 93C152.394 89.9525 155.465 84.4791 154 82z"/>
<path style="fill:#b385f3; stroke:none;" d="M302 147L229.667 226L207.333 251L213 258.333L234 276L293 326L323 351L378.333 273L393.333 252L398.5 244L393 237L376 220L327 171L302 147z"/>
<path style="fill:#4587eb; stroke:none;" d="M103 344C112.814 341.159 123.364 326.893 131 320C155.359 298.01 179.286 271.981 206 253L183.333 221L131 150L121 159L100 183L63 225L49.5 242L53.8333 251L66.6667 275L103 344z"/>
<path style="fill:#274fb9; stroke:none;" d="M49.3333 242.667L49.6667 243.333L49.3333 242.667M50 244C50 261.405 54.0265 285.387 59.3333 302C68.7378 331.44 90.3172 357.004 101 386L102 386C104.727 376.58 103 364.82 103 355C103 351.558 104.612 347.242 103.667 344C97.7551 323.732 81.6239 303.914 72.1667 285C66.2458 273.158 59.5588 252.762 50 244z"/>
<path style="fill:#e34dcb; stroke:none;" d="M398 244L378.333 272L344.167 320L329.167 341L323 351L328.833 363L345 396L347 396L388 334L403.833 309L401 272L398 244z"/>
<path style="fill:#813fef; stroke:none;" d="M206 252C171.003 280.551 135.945 312.055 104 344L104 345L183 401.833L206 418.333L214 423.5L222 419L242 405.667L322 351L322 350L250 289L206 252z"/>
<path style="fill:#5713c7; stroke:none;" d="M104 345L102 388L212 423L212 422L139 369.667L104 345z"/>
<path style="fill:#af13cd; stroke:none;" d="M215 423L215 424L304 405.667L346 397L323 351L290 372.333L215 423z"/>
<path style="fill:#5713c7; stroke:none;" d="M213 423L214 424L213 423z"/>
</svg>
